<svg width="311" height="288" viewBox="0 0 311 288" fill="none" xmlns="http://www.w3.org/2000/svg">
<path d="M0.698864 14.2102V13.3409L4.53409 7.27273H5.16477V8.61932H4.73864L1.84091 13.2045V13.2727H7.00568V14.2102H0.698864ZM4.80682 16V13.946V13.5412V7.27273H5.8125V16H4.80682ZM11.4492 16.1193C10.8072 16.1193 10.2603 15.9446 9.80859 15.5952C9.35689 15.2429 9.01172 14.733 8.77308 14.0653C8.53445 13.3949 8.41513 12.5852 8.41513 11.6364C8.41513 10.6932 8.53445 9.88778 8.77308 9.22017C9.01456 8.54972 9.36115 8.03835 9.81286 7.68608C10.2674 7.33097 10.8129 7.15341 11.4492 7.15341C12.0856 7.15341 12.6296 7.33097 13.0813 7.68608C13.5359 8.03835 13.8825 8.54972 14.1211 9.22017C14.3626 9.88778 14.4833 10.6932 14.4833 11.6364C14.4833 12.5852 14.364 13.3949 14.1254 14.0653C13.8867 14.733 13.5415 15.2429 13.0898 15.5952C12.6381 15.9446 12.0913 16.1193 11.4492 16.1193ZM11.4492 15.1818C12.0856 15.1818 12.5799 14.875 12.9322 14.2614C13.2844 13.6477 13.4606 12.7727 13.4606 11.6364C13.4606 10.8807 13.3796 10.2372 13.2177 9.70597C13.0586 9.17472 12.8285 8.76989 12.5273 8.49148C12.229 8.21307 11.8697 8.07386 11.4492 8.07386C10.8185 8.07386 10.3256 8.38494 9.97053 9.0071C9.61541 9.62642 9.43786 10.5028 9.43786 11.6364C9.43786 12.392 9.5174 13.0341 9.67649 13.5625C9.83558 14.0909 10.0643 14.4929 10.3626 14.7685C10.6637 15.044 11.0259 15.1818 11.4492 15.1818ZM18.9492 16.1193C18.3072 16.1193 17.7603 15.9446 17.3086 15.5952C16.8569 15.2429 16.5117 14.733 16.2731 14.0653C16.0344 13.3949 15.9151 12.5852 15.9151 11.6364C15.9151 10.6932 16.0344 9.88778 16.2731 9.22017C16.5146 8.54972 16.8612 8.03835 17.3129 7.68608C17.7674 7.33097 18.3129 7.15341 18.9492 7.15341C19.5856 7.15341 20.1296 7.33097 20.5813 7.68608C21.0359 8.03835 21.3825 8.54972 21.6211 9.22017C21.8626 9.88778 21.9833 10.6932 21.9833 11.6364C21.9833 12.5852 21.864 13.3949 21.6254 14.0653C21.3867 14.733 21.0415 15.2429 20.5898 15.5952C20.1381 15.9446 19.5913 16.1193 18.9492 16.1193ZM18.9492 15.1818C19.5856 15.1818 20.0799 14.875 20.4322 14.2614C20.7844 13.6477 20.9606 12.7727 20.9606 11.6364C20.9606 10.8807 20.8796 10.2372 20.7177 9.70597C20.5586 9.17472 20.3285 8.76989 20.0273 8.49148C19.729 8.21307 19.3697 8.07386 18.9492 8.07386C18.3185 8.07386 17.8256 8.38494 17.4705 9.0071C17.1154 9.62642 16.9379 10.5028 16.9379 11.6364C16.9379 12.392 17.0174 13.0341 17.1765 13.5625C17.3356 14.0909 17.5643 14.4929 17.8626 14.7685C18.1637 15.044 18.5259 15.1818 18.9492 15.1818Z" fill="#9D9FA2"/>
<path d="M3.85227 76.1193C3.28977 76.1193 2.78835 76.0227 2.34801 75.8295C1.91051 75.6364 1.5625 75.3679 1.30398 75.0241C1.0483 74.6776 0.909091 74.2756 0.886364 73.8182H1.96023C1.98295 74.0994 2.07955 74.3423 2.25 74.5469C2.42045 74.7486 2.64347 74.9048 2.91903 75.0156C3.1946 75.1264 3.5 75.1818 3.83523 75.1818C4.21023 75.1818 4.54261 75.1165 4.83239 74.9858C5.12216 74.8551 5.34943 74.6733 5.5142 74.4403C5.67898 74.2074 5.76136 73.9375 5.76136 73.6307C5.76136 73.3097 5.68182 73.027 5.52273 72.7827C5.36364 72.5355 5.13068 72.3423 4.82386 72.2031C4.51705 72.0639 4.14205 71.9943 3.69886 71.9943H3V71.0568H3.69886C4.04545 71.0568 4.34943 70.9943 4.6108 70.8693C4.875 70.7443 5.08097 70.5682 5.22869 70.3409C5.37926 70.1136 5.45455 69.8466 5.45455 69.5398C5.45455 69.2443 5.3892 68.9872 5.25852 68.7685C5.12784 68.5497 4.94318 68.3793 4.70455 68.2571C4.46875 68.1349 4.19034 68.0739 3.86932 68.0739C3.56818 68.0739 3.28409 68.1293 3.01705 68.2401C2.75284 68.348 2.53693 68.5057 2.36932 68.7131C2.2017 68.9176 2.1108 69.1648 2.09659 69.4545H1.07386C1.09091 68.9972 1.22869 68.5966 1.48722 68.2528C1.74574 67.9062 2.08381 67.6364 2.50142 67.4432C2.92188 67.25 3.38352 67.1534 3.88636 67.1534C4.42614 67.1534 4.8892 67.2628 5.27557 67.4815C5.66193 67.6974 5.95881 67.983 6.16619 68.3381C6.37358 68.6932 6.47727 69.0767 6.47727 69.4886C6.47727 69.9801 6.34801 70.3991 6.08949 70.7457C5.83381 71.0923 5.4858 71.3324 5.04545 71.4659V71.5341C5.59659 71.625 6.02699 71.8594 6.33665 72.2372C6.64631 72.6122 6.80114 73.0767 6.80114 73.6307C6.80114 74.1051 6.67188 74.5312 6.41335 74.9091C6.15767 75.2841 5.80824 75.5795 5.36506 75.7955C4.92188 76.0114 4.41761 76.1193 3.85227 76.1193ZM11.3906 76.1193C10.7486 76.1193 10.2017 75.9446 9.75 75.5952C9.2983 75.2429 8.95313 74.733 8.71449 74.0653C8.47585 73.3949 8.35653 72.5852 8.35653 71.6364C8.35653 70.6932 8.47585 69.8878 8.71449 69.2202C8.95597 68.5497 9.30256 68.0384 9.75426 67.6861C10.2088 67.331 10.7543 67.1534 11.3906 67.1534C12.027 67.1534 12.571 67.331 13.0227 67.6861C13.4773 68.0384 13.8239 68.5497 14.0625 69.2202C14.304 69.8878 14.4247 70.6932 14.4247 71.6364C14.4247 72.5852 14.3054 73.3949 14.0668 74.0653C13.8281 74.733 13.483 75.2429 13.0312 75.5952C12.5795 75.9446 12.0327 76.1193 11.3906 76.1193ZM11.3906 75.1818C12.027 75.1818 12.5213 74.875 12.8736 74.2614C13.2259 73.6477 13.402 72.7727 13.402 71.6364C13.402 70.8807 13.321 70.2372 13.1591 69.706C13 69.1747 12.7699 68.7699 12.4688 68.4915C12.1705 68.2131 11.8111 68.0739 11.3906 68.0739C10.7599 68.0739 10.267 68.3849 9.91193 69.0071C9.55682 69.6264 9.37926 70.5028 9.37926 71.6364C9.37926 72.392 9.45881 73.0341 9.6179 73.5625C9.77699 74.0909 10.0057 74.4929 10.304 74.7685C10.6051 75.044 10.9673 75.1818 11.3906 75.1818ZM18.8906 76.1193C18.2486 76.1193 17.7017 75.9446 17.25 75.5952C16.7983 75.2429 16.4531 74.733 16.2145 74.0653C15.9759 73.3949 15.8565 72.5852 15.8565 71.6364C15.8565 70.6932 15.9759 69.8878 16.2145 69.2202C16.456 68.5497 16.8026 68.0384 17.2543 67.6861C17.7088 67.331 18.2543 67.1534 18.8906 67.1534C19.527 67.1534 20.071 67.331 20.5227 67.6861C20.9773 68.0384 21.3239 68.5497 21.5625 69.2202C21.804 69.8878 21.9247 70.6932 21.9247 71.6364C21.9247 72.5852 21.8054 73.3949 21.5668 74.0653C21.3281 74.733 20.983 75.2429 20.5312 75.5952C20.0795 75.9446 19.5327 76.1193 18.8906 76.1193ZM18.8906 75.1818C19.527 75.1818 20.0213 74.875 20.3736 74.2614C20.7259 73.6477 20.902 72.7727 20.902 71.6364C20.902 70.8807 20.821 70.2372 20.6591 69.706C20.5 69.1747 20.2699 68.7699 19.9688 68.4915C19.6705 68.2131 19.3111 68.0739 18.8906 68.0739C18.2599 68.0739 17.767 68.3849 17.4119 69.0071C17.0568 69.6264 16.8793 70.5028 16.8793 71.6364C16.8793 72.392 16.9588 73.0341 17.1179 73.5625C17.277 74.0909 17.5057 74.4929 17.804 74.7685C18.1051 75.044 18.4673 75.1818 18.8906 75.1818Z" fill="#9D9FA2"/>
<path d="M0.903409 136V135.233L3.78409 132.08C4.12216 131.71 4.40057 131.389 4.61932 131.116C4.83807 130.841 5 130.582 5.10511 130.341C5.21307 130.097 5.26705 129.841 5.26705 129.574C5.26705 129.267 5.19318 129.001 5.04545 128.777C4.90057 128.553 4.7017 128.379 4.44886 128.257C4.19602 128.135 3.91193 128.074 3.59659 128.074C3.26136 128.074 2.96875 128.143 2.71875 128.283C2.47159 128.419 2.27983 128.611 2.14347 128.858C2.00994 129.105 1.94318 129.395 1.94318 129.727H0.9375C0.9375 129.216 1.0554 128.767 1.29119 128.381C1.52699 127.994 1.84801 127.693 2.25426 127.477C2.66335 127.261 3.12216 127.153 3.63068 127.153C4.14205 127.153 4.59517 127.261 4.99006 127.477C5.38494 127.693 5.6946 127.984 5.91903 128.351C6.14347 128.717 6.25568 129.125 6.25568 129.574C6.25568 129.895 6.19744 130.209 6.08097 130.516C5.96733 130.82 5.76847 131.159 5.48438 131.534C5.20312 131.906 4.8125 132.361 4.3125 132.898L2.35227 134.994V135.062H6.40909V136H0.903409ZM11.0156 136.119C10.3736 136.119 9.8267 135.945 9.375 135.595C8.9233 135.243 8.57813 134.733 8.33949 134.065C8.10085 133.395 7.98153 132.585 7.98153 131.636C7.98153 130.693 8.10085 129.888 8.33949 129.22C8.58097 128.55 8.92756 128.038 9.37926 127.686C9.83381 127.331 10.3793 127.153 11.0156 127.153C11.652 127.153 12.196 127.331 12.6477 127.686C13.1023 128.038 13.4489 128.55 13.6875 129.22C13.929 129.888 14.0497 130.693 14.0497 131.636C14.0497 132.585 13.9304 133.395 13.6918 134.065C13.4531 134.733 13.108 135.243 12.6562 135.595C12.2045 135.945 11.6577 136.119 11.0156 136.119ZM11.0156 135.182C11.652 135.182 12.1463 134.875 12.4986 134.261C12.8509 133.648 13.027 132.773 13.027 131.636C13.027 130.881 12.946 130.237 12.7841 129.706C12.625 129.175 12.3949 128.77 12.0938 128.491C11.7955 128.213 11.4361 128.074 11.0156 128.074C10.3849 128.074 9.89205 128.385 9.53693 129.007C9.18182 129.626 9.00426 130.503 9.00426 131.636C9.00426 132.392 9.08381 133.034 9.2429 133.562C9.40199 134.091 9.63068 134.493 9.92898 134.768C10.2301 135.044 10.5923 135.182 11.0156 135.182ZM18.5156 136.119C17.8736 136.119 17.3267 135.945 16.875 135.595C16.4233 135.243 16.0781 134.733 15.8395 134.065C15.6009 133.395 15.4815 132.585 15.4815 131.636C15.4815 130.693 15.6009 129.888 15.8395 129.22C16.081 128.55 16.4276 128.038 16.8793 127.686C17.3338 127.331 17.8793 127.153 18.5156 127.153C19.152 127.153 19.696 127.331 20.1477 127.686C20.6023 128.038 20.9489 128.55 21.1875 129.22C21.429 129.888 21.5497 130.693 21.5497 131.636C21.5497 132.585 21.4304 133.395 21.1918 134.065C20.9531 134.733 20.608 135.243 20.1562 135.595C19.7045 135.945 19.1577 136.119 18.5156 136.119ZM18.5156 135.182C19.152 135.182 19.6463 134.875 19.9986 134.261C20.3509 133.648 20.527 132.773 20.527 131.636C20.527 130.881 20.446 130.237 20.2841 129.706C20.125 129.175 19.8949 128.77 19.5938 128.491C19.2955 128.213 18.9361 128.074 18.5156 128.074C17.8849 128.074 17.392 128.385 17.0369 129.007C16.6818 129.626 16.5043 130.503 16.5043 131.636C16.5043 132.392 16.5838 133.034 16.7429 133.562C16.902 134.091 17.1307 134.493 17.429 134.768C17.7301 135.044 18.0923 135.182 18.5156 135.182Z" fill="#9D9FA2"/>
<path d="M3.97159 187.273V196H2.91477V188.381H2.86364L0.732955 189.795V188.722L2.91477 187.273H3.97159ZM9.32812 196.119C8.68608 196.119 8.1392 195.945 7.6875 195.595C7.2358 195.243 6.89063 194.733 6.65199 194.065C6.41335 193.395 6.29403 192.585 6.29403 191.636C6.29403 190.693 6.41335 189.888 6.65199 189.22C6.89347 188.55 7.24006 188.038 7.69176 187.686C8.14631 187.331 8.69176 187.153 9.32812 187.153C9.96449 187.153 10.5085 187.331 10.9602 187.686C11.4148 188.038 11.7614 188.55 12 189.22C12.2415 189.888 12.3622 190.693 12.3622 191.636C12.3622 192.585 12.2429 193.395 12.0043 194.065C11.7656 194.733 11.4205 195.243 10.9688 195.595C10.517 195.945 9.97017 196.119 9.32812 196.119ZM9.32812 195.182C9.96449 195.182 10.4588 194.875 10.8111 194.261C11.1634 193.648 11.3395 192.773 11.3395 191.636C11.3395 190.881 11.2585 190.237 11.0966 189.706C10.9375 189.175 10.7074 188.77 10.4062 188.491C10.108 188.213 9.74858 188.074 9.32812 188.074C8.69744 188.074 8.20455 188.385 7.84943 189.007C7.49432 189.626 7.31676 190.503 7.31676 191.636C7.31676 192.392 7.39631 193.034 7.5554 193.562C7.71449 194.091 7.94318 194.493 8.24148 194.768C8.54261 195.044 8.90483 195.182 9.32812 195.182ZM16.8281 196.119C16.1861 196.119 15.6392 195.945 15.1875 195.595C14.7358 195.243 14.3906 194.733 14.152 194.065C13.9134 193.395 13.794 192.585 13.794 191.636C13.794 190.693 13.9134 189.888 14.152 189.22C14.3935 188.55 14.7401 188.038 15.1918 187.686C15.6463 187.331 16.1918 187.153 16.8281 187.153C17.4645 187.153 18.0085 187.331 18.4602 187.686C18.9148 188.038 19.2614 188.55 19.5 189.22C19.7415 189.888 19.8622 190.693 19.8622 191.636C19.8622 192.585 19.7429 193.395 19.5043 194.065C19.2656 194.733 18.9205 195.243 18.4688 195.595C18.017 195.945 17.4702 196.119 16.8281 196.119ZM16.8281 195.182C17.4645 195.182 17.9588 194.875 18.3111 194.261C18.6634 193.648 18.8395 192.773 18.8395 191.636C18.8395 190.881 18.7585 190.237 18.5966 189.706C18.4375 189.175 18.2074 188.77 17.9062 188.491C17.608 188.213 17.2486 188.074 16.8281 188.074C16.1974 188.074 15.7045 188.385 15.3494 189.007C14.9943 189.626 14.8168 190.503 14.8168 191.636C14.8168 192.392 14.8963 193.034 15.0554 193.562C15.2145 194.091 15.4432 194.493 15.7415 194.768C16.0426 195.044 16.4048 195.182 16.8281 195.182Z" fill="#9D9FA2"/>
<path d="M3.75 256.119C3.10795 256.119 2.56108 255.945 2.10938 255.595C1.65767 255.243 1.3125 254.733 1.07386 254.065C0.835227 253.395 0.715909 252.585 0.715909 251.636C0.715909 250.693 0.835227 249.888 1.07386 249.22C1.31534 248.55 1.66193 248.038 2.11364 247.686C2.56818 247.331 3.11364 247.153 3.75 247.153C4.38636 247.153 4.9304 247.331 5.3821 247.686C5.83665 248.038 6.18324 248.55 6.42188 249.22C6.66335 249.888 6.78409 250.693 6.78409 251.636C6.78409 252.585 6.66477 253.395 6.42614 254.065C6.1875 254.733 5.84233 255.243 5.39062 255.595C4.93892 255.945 4.39205 256.119 3.75 256.119ZM3.75 255.182C4.38636 255.182 4.88068 254.875 5.23295 254.261C5.58523 253.648 5.76136 252.773 5.76136 251.636C5.76136 250.881 5.6804 250.237 5.51847 249.706C5.35938 249.175 5.12926 248.77 4.82812 248.491C4.52983 248.213 4.17045 248.074 3.75 248.074C3.11932 248.074 2.62642 248.385 2.27131 249.007C1.91619 249.626 1.73864 250.503 1.73864 251.636C1.73864 252.392 1.81818 253.034 1.97727 253.562C2.13636 254.091 2.36506 254.493 2.66335 254.768C2.96449 255.044 3.3267 255.182 3.75 255.182Z" fill="#9D9FA2"/>
<path d="M37.0073 275.455C36.9561 275.023 36.7488 274.688 36.3851 274.449C36.0215 274.21 35.5755 274.091 35.0471 274.091C34.6607 274.091 34.3226 274.153 34.0328 274.278C33.7459 274.403 33.5215 274.575 33.3596 274.794C33.2005 275.013 33.1209 275.261 33.1209 275.54C33.1209 275.773 33.1763 275.973 33.2871 276.141C33.4007 276.305 33.5456 276.443 33.7218 276.554C33.8979 276.662 34.0826 276.751 34.2757 276.822C34.4689 276.891 34.6465 276.946 34.8084 276.989L35.6948 277.227C35.9221 277.287 36.1749 277.369 36.4533 277.474C36.7346 277.58 37.003 277.723 37.2587 277.905C37.5172 278.084 37.7303 278.314 37.8979 278.595C38.0655 278.876 38.1493 279.222 38.1493 279.631C38.1493 280.102 38.0257 280.528 37.7786 280.909C37.5343 281.29 37.1763 281.592 36.7047 281.817C36.236 282.041 35.6664 282.153 34.9959 282.153C34.3709 282.153 33.8297 282.053 33.3723 281.851C32.9178 281.649 32.5598 281.368 32.2985 281.007C32.04 280.646 31.8936 280.227 31.8596 279.75H32.9505C32.9789 280.08 33.0897 280.352 33.2828 280.568C33.4789 280.781 33.726 280.94 34.0243 281.045C34.3255 281.148 34.6493 281.199 34.9959 281.199C35.3993 281.199 35.7615 281.134 36.0826 281.003C36.4036 280.869 36.6578 280.685 36.8453 280.449C37.0328 280.21 37.1266 279.932 37.1266 279.614C37.1266 279.324 37.0456 279.088 36.8837 278.906C36.7218 278.724 36.5087 278.577 36.2445 278.463C35.9803 278.349 35.6948 278.25 35.388 278.165L34.3141 277.858C33.6323 277.662 33.0925 277.382 32.6948 277.018C32.2971 276.655 32.0982 276.179 32.0982 275.591C32.0982 275.102 32.2303 274.676 32.4945 274.312C32.7615 273.946 33.1195 273.662 33.5684 273.46C34.0201 273.256 34.5243 273.153 35.0811 273.153C35.6436 273.153 36.1436 273.254 36.5811 273.456C37.0186 273.655 37.3652 273.928 37.6209 274.274C37.8794 274.621 38.0158 275.014 38.03 275.455H37.0073ZM43.8755 279.324V275.455H44.8812V282H43.8755V280.892H43.8074C43.6539 281.224 43.4153 281.507 43.0914 281.74C42.7676 281.97 42.3585 282.085 41.8642 282.085C41.4551 282.085 41.0914 281.996 40.7733 281.817C40.4551 281.635 40.2051 281.362 40.0233 280.999C39.8414 280.632 39.7505 280.17 39.7505 279.614V275.455H40.7562V279.545C40.7562 280.023 40.8897 280.403 41.1568 280.688C41.4267 280.972 41.7704 281.114 42.188 281.114C42.438 281.114 42.6923 281.05 42.9508 280.922C43.2122 280.794 43.4309 280.598 43.6071 280.334C43.786 280.07 43.8755 279.733 43.8755 279.324ZM47.7289 278.062V282H46.7232V275.455H47.6948V276.477H47.78C47.9334 276.145 48.1664 275.878 48.4789 275.676C48.7914 275.472 49.1948 275.369 49.6891 275.369C50.1323 275.369 50.5201 275.46 50.8525 275.642C51.1848 275.821 51.4434 276.094 51.628 276.46C51.8127 276.824 51.905 277.284 51.905 277.841V282H50.8993V277.909C50.8993 277.395 50.7658 276.994 50.4988 276.707C50.2317 276.418 49.8652 276.273 49.3993 276.273C49.0783 276.273 48.7914 276.342 48.5385 276.482C48.2885 276.621 48.0911 276.824 47.9462 277.091C47.8013 277.358 47.7289 277.682 47.7289 278.062Z" fill="#9D9FA2"/>
<path d="M75.7957 273.273H77.0571L80.023 280.517H80.1253L83.0912 273.273H84.3525V282H83.3639V275.369H83.2787L80.5514 282H79.5968L76.8696 275.369H76.7843V282H75.7957V273.273ZM88.9942 282.136C88.4033 282.136 87.8848 281.996 87.4388 281.714C86.9956 281.433 86.649 281.04 86.399 280.534C86.1519 280.028 86.0283 279.437 86.0283 278.761C86.0283 278.08 86.1519 277.484 86.399 276.976C86.649 276.467 86.9956 276.072 87.4388 275.791C87.8848 275.51 88.4033 275.369 88.9942 275.369C89.5851 275.369 90.1022 275.51 90.5454 275.791C90.9914 276.072 91.338 276.467 91.5851 276.976C91.8351 277.484 91.9601 278.08 91.9601 278.761C91.9601 279.437 91.8351 280.028 91.5851 280.534C91.338 281.04 90.9914 281.433 90.5454 281.714C90.1022 281.996 89.5851 282.136 88.9942 282.136ZM88.9942 281.233C89.4431 281.233 89.8124 281.118 90.1022 280.888C90.3919 280.658 90.6064 280.355 90.7456 279.98C90.8848 279.605 90.9544 279.199 90.9544 278.761C90.9544 278.324 90.8848 277.916 90.7456 277.538C90.6064 277.161 90.3919 276.855 90.1022 276.622C89.8124 276.389 89.4431 276.273 88.9942 276.273C88.5454 276.273 88.176 276.389 87.8863 276.622C87.5965 276.855 87.382 277.161 87.2428 277.538C87.1036 277.916 87.034 278.324 87.034 278.761C87.034 279.199 87.1036 279.605 87.2428 279.98C87.382 280.355 87.5965 280.658 87.8863 280.888C88.176 281.118 88.5454 281.233 88.9942 281.233ZM94.501 278.062V282H93.4953V275.455H94.4669V276.477H94.5521C94.7055 276.145 94.9385 275.878 95.251 275.676C95.5635 275.472 95.9669 275.369 96.4612 275.369C96.9044 275.369 97.2922 275.46 97.6245 275.642C97.9569 275.821 98.2155 276.094 98.4001 276.46C98.5848 276.824 98.6771 277.284 98.6771 277.841V282H97.6714V277.909C97.6714 277.395 97.5379 276.994 97.2709 276.707C97.0038 276.418 96.6373 276.273 96.1714 276.273C95.8504 276.273 95.5635 276.342 95.3106 276.482C95.0606 276.621 94.8632 276.824 94.7183 277.091C94.5734 277.358 94.501 277.682 94.501 278.062Z" fill="#9D9FA2"/>
<path d="M122.03 274.21V273.273H128.576V274.21H125.831V282H124.774V274.21H122.03ZM133.305 279.324V275.455H134.31V282H133.305V280.892H133.236C133.083 281.224 132.844 281.507 132.521 281.74C132.197 281.97 131.788 282.085 131.293 282.085C130.884 282.085 130.521 281.996 130.202 281.817C129.884 281.635 129.634 281.362 129.452 280.999C129.271 280.632 129.18 280.17 129.18 279.614V275.455H130.185V279.545C130.185 280.023 130.319 280.403 130.586 280.688C130.856 280.972 131.199 281.114 131.617 281.114C131.867 281.114 132.121 281.05 132.38 280.922C132.641 280.794 132.86 280.598 133.036 280.334C133.215 280.07 133.305 279.733 133.305 279.324ZM138.897 282.136C138.266 282.136 137.722 281.997 137.264 281.719C136.81 281.438 136.459 281.045 136.212 280.543C135.968 280.037 135.845 279.449 135.845 278.778C135.845 278.108 135.968 277.517 136.212 277.006C136.459 276.491 136.803 276.091 137.243 275.804C137.686 275.514 138.203 275.369 138.794 275.369C139.135 275.369 139.472 275.426 139.804 275.54C140.137 275.653 140.439 275.838 140.712 276.094C140.985 276.347 141.202 276.682 141.364 277.099C141.526 277.517 141.607 278.031 141.607 278.642V279.068H136.561V278.199H140.584C140.584 277.83 140.51 277.5 140.362 277.21C140.218 276.92 140.01 276.692 139.74 276.524C139.473 276.357 139.158 276.273 138.794 276.273C138.394 276.273 138.047 276.372 137.755 276.571C137.465 276.767 137.242 277.023 137.086 277.338C136.929 277.653 136.851 277.991 136.851 278.352V278.932C136.851 279.426 136.936 279.845 137.107 280.189C137.28 280.53 137.52 280.79 137.827 280.969C138.134 281.145 138.49 281.233 138.897 281.233C139.161 281.233 139.399 281.196 139.612 281.122C139.828 281.045 140.014 280.932 140.171 280.781C140.327 280.628 140.448 280.437 140.533 280.21L141.505 280.483C141.402 280.812 141.23 281.102 140.989 281.352C140.747 281.599 140.449 281.793 140.094 281.932C139.739 282.068 139.34 282.136 138.897 282.136Z" fill="#9D9FA2"/>
<path d="M167.033 282L164.646 273.273H165.72L167.544 280.381H167.629L169.487 273.273H170.68L172.538 280.381H172.624L174.447 273.273H175.521L173.135 282H172.044L170.118 275.045H170.05L168.124 282H167.033ZM178.837 282.136C178.206 282.136 177.662 281.997 177.205 281.719C176.75 281.438 176.399 281.045 176.152 280.543C175.908 280.037 175.786 279.449 175.786 278.778C175.786 278.108 175.908 277.517 176.152 277.006C176.399 276.491 176.743 276.091 177.183 275.804C177.626 275.514 178.143 275.369 178.734 275.369C179.075 275.369 179.412 275.426 179.744 275.54C180.077 275.653 180.379 275.838 180.652 276.094C180.925 276.347 181.142 276.682 181.304 277.099C181.466 277.517 181.547 278.031 181.547 278.642V279.068H176.501V278.199H180.524C180.524 277.83 180.45 277.5 180.303 277.21C180.158 276.92 179.95 276.692 179.68 276.524C179.413 276.357 179.098 276.273 178.734 276.273C178.334 276.273 177.987 276.372 177.695 276.571C177.405 276.767 177.182 277.023 177.026 277.338C176.869 277.653 176.791 277.991 176.791 278.352V278.932C176.791 279.426 176.876 279.845 177.047 280.189C177.22 280.53 177.46 280.79 177.767 280.969C178.074 281.145 178.43 281.233 178.837 281.233C179.101 281.233 179.339 281.196 179.553 281.122C179.768 281.045 179.955 280.932 180.111 280.781C180.267 280.628 180.388 280.437 180.473 280.21L181.445 280.483C181.342 280.812 181.17 281.102 180.929 281.352C180.688 281.599 180.389 281.793 180.034 281.932C179.679 282.068 179.28 282.136 178.837 282.136ZM185.548 282.136C185.003 282.136 184.521 281.999 184.104 281.723C183.686 281.445 183.359 281.053 183.124 280.547C182.888 280.038 182.77 279.438 182.77 278.744C182.77 278.057 182.888 277.46 183.124 276.955C183.359 276.449 183.688 276.058 184.108 275.783C184.528 275.507 185.014 275.369 185.565 275.369C185.991 275.369 186.328 275.44 186.575 275.582C186.825 275.722 187.016 275.881 187.146 276.06C187.28 276.236 187.384 276.381 187.457 276.494H187.543V273.273H188.548V282H187.577V280.994H187.457C187.384 281.114 187.278 281.264 187.142 281.446C187.006 281.625 186.811 281.786 186.558 281.928C186.305 282.067 185.969 282.136 185.548 282.136ZM185.685 281.233C186.088 281.233 186.429 281.128 186.707 280.918C186.986 280.705 187.197 280.411 187.342 280.036C187.487 279.658 187.56 279.222 187.56 278.727C187.56 278.239 187.489 277.811 187.347 277.445C187.205 277.075 186.994 276.788 186.716 276.584C186.438 276.376 186.094 276.273 185.685 276.273C185.259 276.273 184.903 276.382 184.619 276.601C184.338 276.817 184.126 277.111 183.984 277.483C183.845 277.852 183.776 278.267 183.776 278.727C183.776 279.193 183.847 279.616 183.989 279.997C184.134 280.375 184.347 280.676 184.628 280.901C184.912 281.122 185.264 281.233 185.685 281.233Z" fill="#9D9FA2"/>
<path d="M212.365 274.21V273.273H218.911V274.21H216.166V282H215.11V274.21H212.365ZM221.411 278.062V282H220.405V273.273H221.411V276.477H221.496C221.65 276.139 221.88 275.871 222.187 275.672C222.496 275.47 222.908 275.369 223.422 275.369C223.869 275.369 224.259 275.459 224.594 275.638C224.93 275.814 225.19 276.085 225.374 276.452C225.562 276.815 225.655 277.278 225.655 277.841V282H224.65V277.909C224.65 277.389 224.515 276.987 224.245 276.703C223.978 276.416 223.607 276.273 223.133 276.273C222.803 276.273 222.508 276.342 222.246 276.482C221.988 276.621 221.783 276.824 221.633 277.091C221.485 277.358 221.411 277.682 221.411 278.062ZM231.62 279.324V275.455H232.626V282H231.62V280.892H231.552C231.399 281.224 231.16 281.507 230.836 281.74C230.512 281.97 230.103 282.085 229.609 282.085C229.2 282.085 228.836 281.996 228.518 281.817C228.2 281.635 227.95 281.362 227.768 280.999C227.586 280.632 227.495 280.17 227.495 279.614V275.455H228.501V279.545C228.501 280.023 228.634 280.403 228.902 280.688C229.171 280.972 229.515 281.114 229.933 281.114C230.183 281.114 230.437 281.05 230.696 280.922C230.957 280.794 231.176 280.598 231.352 280.334C231.531 280.07 231.62 279.733 231.62 279.324Z" fill="#9D9FA2"/>
<path d="M256.748 282V273.273H261.981V274.21H257.804V277.159H261.589V278.097H257.804V282H256.748ZM263.584 282V275.455H264.555V276.443H264.624C264.743 276.119 264.959 275.857 265.271 275.655C265.584 275.453 265.936 275.352 266.328 275.352C266.402 275.352 266.494 275.354 266.605 275.357C266.716 275.359 266.8 275.364 266.857 275.369V276.392C266.823 276.384 266.744 276.371 266.622 276.354C266.503 276.334 266.377 276.324 266.243 276.324C265.925 276.324 265.641 276.391 265.391 276.524C265.144 276.655 264.948 276.837 264.803 277.07C264.661 277.3 264.59 277.562 264.59 277.858V282H263.584ZM268.049 282V275.455H269.054V282H268.049ZM268.56 274.364C268.364 274.364 268.195 274.297 268.053 274.163C267.914 274.03 267.844 273.869 267.844 273.682C267.844 273.494 267.914 273.334 268.053 273.2C268.195 273.067 268.364 273 268.56 273C268.756 273 268.924 273.067 269.063 273.2C269.205 273.334 269.276 273.494 269.276 273.682C269.276 273.869 269.205 274.03 269.063 274.163C268.924 274.297 268.756 274.364 268.56 274.364Z" fill="#9D9FA2"/>
<path d="M297.943 275.455C297.892 275.023 297.684 274.688 297.321 274.449C296.957 274.21 296.511 274.091 295.983 274.091C295.596 274.091 295.258 274.153 294.968 274.278C294.681 274.403 294.457 274.575 294.295 274.794C294.136 275.013 294.056 275.261 294.056 275.54C294.056 275.773 294.112 275.973 294.223 276.141C294.336 276.305 294.481 276.443 294.657 276.554C294.833 276.662 295.018 276.751 295.211 276.822C295.404 276.891 295.582 276.946 295.744 276.989L296.63 277.227C296.858 277.287 297.11 277.369 297.389 277.474C297.67 277.58 297.939 277.723 298.194 277.905C298.453 278.084 298.666 278.314 298.833 278.595C299.001 278.876 299.085 279.222 299.085 279.631C299.085 280.102 298.961 280.528 298.714 280.909C298.47 281.29 298.112 281.592 297.64 281.817C297.172 282.041 296.602 282.153 295.931 282.153C295.306 282.153 294.765 282.053 294.308 281.851C293.853 281.649 293.495 281.368 293.234 281.007C292.975 280.646 292.829 280.227 292.795 279.75H293.886C293.914 280.08 294.025 280.352 294.218 280.568C294.414 280.781 294.662 280.94 294.96 281.045C295.261 281.148 295.585 281.199 295.931 281.199C296.335 281.199 296.697 281.134 297.018 281.003C297.339 280.869 297.593 280.685 297.781 280.449C297.968 280.21 298.062 279.932 298.062 279.614C298.062 279.324 297.981 279.088 297.819 278.906C297.657 278.724 297.444 278.577 297.18 278.463C296.916 278.349 296.63 278.25 296.324 278.165L295.25 277.858C294.568 277.662 294.028 277.382 293.63 277.018C293.233 276.655 293.034 276.179 293.034 275.591C293.034 275.102 293.166 274.676 293.43 274.312C293.697 273.946 294.055 273.662 294.504 273.46C294.956 273.256 295.46 273.153 296.017 273.153C296.579 273.153 297.079 273.254 297.517 273.456C297.954 273.655 298.301 273.928 298.556 274.274C298.815 274.621 298.951 275.014 298.966 275.455H297.943ZM302.612 282.153C302.197 282.153 301.821 282.075 301.483 281.919C301.145 281.76 300.876 281.531 300.678 281.233C300.479 280.932 300.379 280.568 300.379 280.142C300.379 279.767 300.453 279.463 300.601 279.23C300.749 278.994 300.946 278.81 301.193 278.676C301.44 278.543 301.713 278.443 302.011 278.378C302.313 278.31 302.615 278.256 302.919 278.216C303.317 278.165 303.639 278.126 303.886 278.101C304.136 278.072 304.318 278.026 304.432 277.96C304.548 277.895 304.607 277.781 304.607 277.619V277.585C304.607 277.165 304.491 276.838 304.261 276.605C304.034 276.372 303.689 276.256 303.226 276.256C302.746 276.256 302.369 276.361 302.097 276.571C301.824 276.781 301.632 277.006 301.521 277.244L300.567 276.903C300.737 276.506 300.964 276.196 301.249 275.974C301.536 275.75 301.848 275.594 302.186 275.506C302.527 275.415 302.862 275.369 303.192 275.369C303.402 275.369 303.643 275.395 303.916 275.446C304.192 275.494 304.457 275.595 304.713 275.749C304.972 275.902 305.186 276.134 305.357 276.443C305.527 276.753 305.612 277.168 305.612 277.688V282H304.607V281.114H304.555C304.487 281.256 304.374 281.408 304.214 281.57C304.055 281.732 303.844 281.869 303.58 281.983C303.315 282.097 302.993 282.153 302.612 282.153ZM302.766 281.25C303.163 281.25 303.499 281.172 303.771 281.016C304.047 280.859 304.254 280.658 304.393 280.411C304.536 280.163 304.607 279.903 304.607 279.631V278.71C304.564 278.761 304.47 278.808 304.325 278.851C304.183 278.891 304.018 278.926 303.831 278.957C303.646 278.986 303.466 279.011 303.29 279.034C303.116 279.054 302.976 279.071 302.868 279.085C302.607 279.119 302.362 279.175 302.135 279.251C301.911 279.325 301.729 279.437 301.589 279.588C301.453 279.736 301.385 279.937 301.385 280.193C301.385 280.543 301.514 280.807 301.773 280.986C302.034 281.162 302.365 281.25 302.766 281.25ZM310.294 275.455V276.307H306.902V275.455H310.294ZM307.891 273.886H308.897V280.125C308.897 280.409 308.938 280.622 309.02 280.764C309.105 280.903 309.213 280.997 309.344 281.045C309.478 281.091 309.618 281.114 309.766 281.114C309.877 281.114 309.968 281.108 310.039 281.097C310.11 281.082 310.167 281.071 310.209 281.062L310.414 281.966C310.346 281.991 310.25 282.017 310.128 282.043C310.006 282.071 309.851 282.085 309.664 282.085C309.38 282.085 309.101 282.024 308.828 281.902C308.559 281.78 308.334 281.594 308.155 281.344C307.979 281.094 307.891 280.778 307.891 280.398V273.886Z" fill="#9D9FA2"/>
<path d="M31 136.467C38.589 131.132 85.6504 147.139 94.969 126.576C106.617 100.872 115.84 18.3263 126.337 64.69C137.591 114.404 156.621 -41.8767 172.22 14.4136C179.267 39.8459 194.446 118.038 209.431 118.038C221.608 118.038 221.591 44.4106 245.947 44.4106C270.302 44.4106 268.113 136.467 311 136.467" stroke="#20C997" stroke-width="3"/>
<path d="M94.969 126.576C85.6504 147.139 38.589 131.132 31 136.467V242H311V136.467C268.113 136.467 270.302 44.4106 245.947 44.4106C221.591 44.4106 221.608 118.038 209.431 118.038C194.446 118.038 179.267 39.8459 172.22 14.4136C156.621 -41.8767 137.591 114.404 126.337 64.69C115.84 18.3263 106.617 100.872 94.969 126.576Z" fill="url(#paint0_linear_1_590)"/>
<path d="M64.9552 117.52C55.7612 133.621 38.4876 146.001 31 150.178V242H311V93.9769C268.687 93.9769 268.164 190.43 244.134 190.43C220.104 190.43 219.06 86.5901 207.045 86.5901C195.03 86.5901 198.164 165.367 170.478 161.95C142.791 158.532 129.209 124.735 112.493 93.9769C95.7761 63.2183 76.4478 97.3945 64.9552 117.52Z" fill="url(#paint1_linear_1_590)"/>
<path d="M31 150.178C38.4876 146.001 55.7612 133.621 64.9552 117.52C76.4478 97.3945 95.7761 63.2183 112.493 93.9769C129.209 124.735 142.791 158.532 170.478 161.95C198.164 165.367 195.03 87.0819 207.045 87.0819C219.06 87.0819 220.104 190.43 244.134 190.43C268.164 190.43 268.687 93.9769 311 93.9769" stroke="#679CF6" stroke-width="3"/>
<defs>
<linearGradient id="paint0_linear_1_590" x1="171" y1="2" x2="171" y2="242" gradientUnits="userSpaceOnUse">
<stop stop-color="#20C997" stop-opacity="0.13"/>
<stop offset="1" stop-color="#20C997" stop-opacity="0"/>
</linearGradient>
<linearGradient id="paint1_linear_1_590" x1="171" y1="81.6724" x2="171" y2="242" gradientUnits="userSpaceOnUse">
<stop stop-color="#4285F4" stop-opacity="0.25"/>
<stop offset="1" stop-color="#4285F4" stop-opacity="0"/>
</linearGradient>
</defs>
</svg>
